<svg xmlns="http://www.w3.org/2000/svg" viewBox="0 0 24 24" role="img" aria-hidden="true">
  <path fill="#f7f2eb" d="M19 4.9A9.9 9.9 0 0 0 3.9 17.1L2.7 21.3l4.3-1.1A9.9 9.9 0 1 0 19 4.9Zm-7 14.9a8.1 8.1 0 0 1-4.1-1.1l-.3-.2-2.5.7.7-2.4-.2-.4A8.1 8.1 0 1 1 12 19.8Zm4.4-6.1c-.2-.1-1.3-.7-1.5-.8s-.4-.1-.6.1-.7.8-.8 1-.3.2-.5.1a6.7 6.7 0 0 1-2-1.2 7.5 7.5 0 0 1-1.4-1.8c-.1-.2 0-.4.1-.5l.3-.4.2-.4a.5.5 0 0 0 0-.5c-.1-.1-.6-1.4-.8-1.9s-.4-.4-.6-.4h-.5a1 1 0 0 0-.7.3A2.3 2.3 0 0 0 7 9.1a4 4 0 0 0 .8 2.1 9.3 9.3 0 0 0 3.5 3.1 11.2 11.2 0 0 0 1.2.4 2.8 2.8 0 0 0 1.3.1 2.1 2.1 0 0 0 1.4-1 1.8 1.8 0 0 0 .1-1c-.1-.1-.3-.2-.5-.3Z"/>
</svg>
